# xmcd
#
# Track frame offsets:
#	150
#	48107
#	59516
#	76158
#	96556
#	117490
#	132343
#	151875
#	166356
#	181444
#	192681
#	208494
#	222131
#	234100
#	251933
#	267188
#	286418
#	300672
#	317384
#	335446
#	348863
#
# Disc length: 4741 seconds
#
# Revision: 0
# Processed by: cddbd v1.4PL0 Copyright (c) Steve Scherf et al.
# Submitted via: dBpowerAMP V4.0
#
DISCID=3b128315
DTITLE=Randy Travis - Worship and Faith
DYEAR=2003
DGENRE=Country
TTITLE0=DATA
TTITLE1=He's My Rock, My Sword, My Shield
TTITLE2=Farther Along
TTITLE3=How Great Thou Art
TTITLE4=Just A Closer Walk With Thee
TTITLE5=Shall We Gather At The River
TTITLE6=You Are Worthy Of My Praise
TTITLE7=Love Lifted Me
TTITLE8=Softly And Tenderly
TTITLE9=Sweet By And By
TTITLE10=Blessed Assurance
TTITLE11=I'll Fly Away
TTITLE12=Turn The Radio On
TTITLE13=Open The Eyes Of My Heart
TTITLE14=In The Garden
TTITLE15=Above All
TTITLE16=Will The Circle Be Unbroken
TTITLE17=We Fall Down
TTITLE18=Peace In The Valley
TTITLE19=Unclouded Day
TTITLE20=Room At The Cross
EXTD=Album Title:  Worship and Faith\nArtist:  Randy Travis\nReleased by Word Entertainment\nStreet Date:  11/11/03\nWord CD Product# 88273\nCD UPC:  080688627324\nWord DVD Product# 886293\nDVD UPC: 080688629397\n\nAdditional Tracks on DVD:\n\n21. Pray Fo
EXTD=r The Fish 3:01\n22. Three Wooden Crosses 3:21\n23. Forever And Ever Amen  3:31\n24. America Will Always Stand 4:00
EXTT0=
EXTT1=
EXTT2=
EXTT3=
EXTT4=
EXTT5=
EXTT6=
EXTT7=
EXTT8=
EXTT9=
EXTT10=
EXTT11=
EXTT12=
EXTT13=
EXTT14=
EXTT15=
EXTT16=
EXTT17=
EXTT18=
EXTT19=
EXTT20=
PLAYORDER=
